<?xml version="1.0" encoding="utf-8"?>
<!-- Generator: Adobe Illustrator 22.0.0, SVG Export Plug-In . SVG Version: 6.00 Build 0)  -->
<svg version="1.1" xmlns="http://www.w3.org/2000/svg" xmlns:xlink="http://www.w3.org/1999/xlink" x="0px" y="0px"
	 viewBox="0 0 422.2 186.9" style="enable-background:new 0 0 422.2 186.9;" xml:space="preserve">
<style type="text/css">
	.st0{fill:#FFFFFF;}
</style>
<g id="logo">
	<path class="st0" d="M92,92.5v47H45.5v-47H0V48.4h45.5V1.8L92,1.4v46.9h47.3L92,92.5z"/>
	<path class="st0" d="M186,139.5v47h-46.5v-47H94l45.5-45.1l46.5,1V139.5z"/>
	<circle class="st0" cx="163.7" cy="71.4" r="23.4"/>
</g>
<g id="text">
	<g>
		<path class="st0" d="M223.7,152.7h6.9v33.6h-6.7V178c0.1-1.3,0.2-3.4,0.3-6.1s0.2-4.8,0.3-6.1l-0.2-0.1l-3,8.8l-1.7,4.6h-6.7
			l-1.7-4.6l-3-8.8l-0.2,0.1c0.1,1.3,0.2,3.4,0.3,6.1c0.1,2.7,0.2,4.8,0.2,6.1v8.3h-6.6v-33.6h6.9l5.3,12.7c1.2,2.9,1.9,4.9,2.2,5.9
			h0.2c0.3-1,1-2.9,2.2-5.9L223.7,152.7z"/>
		<path class="st0" d="M250.6,184.3c-1.7,1.8-4,2.6-7,2.6c-3,0-5.3-0.9-7-2.6c-1.7-1.8-2.5-4.3-2.5-7.5v-6.5c0-3.2,0.8-5.7,2.5-7.5
			c1.7-1.7,4-2.6,7-2.6c3,0,5.3,0.9,7,2.6c1.7,1.7,2.5,4.2,2.5,7.5v6.5C253.1,180,252.2,182.5,250.6,184.3z M243.6,180.6
			c1.9,0,2.8-1.3,2.8-3.8v-6.5c0-2.5-0.9-3.7-2.8-3.7c-1.9,0-2.8,1.2-2.8,3.7v6.5C240.8,179.3,241.7,180.6,243.6,180.6z"/>
		<path class="st0" d="M270.4,152.7h6.9v33.6h-6.9v-13.7h-6.9v13.7h-6.9v-33.6h6.9v13.4h6.9V152.7z"/>
		<path class="st0" d="M308.4,183.8c-1.9,2-4.5,3-7.9,3c-3.4,0-6-1-7.9-3c-1.9-2-2.8-4.8-2.8-8.4v-22.8h7.1v22.8
			c0,3.2,1.2,4.8,3.6,4.8c2.4,0,3.6-1.6,3.6-4.8v-22.8h7.1v22.8C311.3,179,310.3,181.8,308.4,183.8z"/>
		<path class="st0" d="M327.4,186.3l-4.8-10.2l-1.2,1.2v9h-6.5v-34.8h6.5v17.2l4.7-7.8h7.5l-6.7,10.1l7.8,15.4H327.4z"/>
		<path class="st0" d="M346.8,160.2c1.2,0,2.1,0.2,2.8,0.6v6.2c-1-0.4-2-0.7-3.1-0.7c-2.9,0-4.4,1.3-4.4,3.9v16h-6.5v-25.4h4.3
			l0.5,2.7C341.8,161.3,343.9,160.2,346.8,160.2z"/>
		<path class="st0" d="M359.8,160.2c3,0,5.2,0.8,6.6,2.5c1.4,1.6,2.1,4.1,2.1,7.4v16.2h-5.2l-0.4-2.4c-1.1,2-2.9,3.1-5.5,3.1
			c-2.3,0-4.1-0.7-5.5-2.2c-1.4-1.5-2.1-3.4-2.1-5.7c0-2.7,0.9-4.7,2.7-6c1.8-1.4,4.1-2.1,7.1-2.1h2.4v-0.8c0-1.2-0.2-2.1-0.5-2.7
			c-0.3-0.6-0.9-0.9-1.8-0.9c-1.5,0-2.3,0.8-2.5,2.3h-6.6c0.1-2.7,1-4.8,2.6-6.3C354.8,161,357,160.2,359.8,160.2z M362,178.3v-1.9
			h-2.2c-2.1,0-3.2,0.9-3.2,2.6c0,0.7,0.2,1.3,0.6,1.7c0.4,0.4,1,0.7,1.9,0.7c0.9,0,1.6-0.3,2.1-0.8C361.7,180,362,179.2,362,178.3z
			"/>
		<path class="st0" d="M375.4,157.1c-1.1,0-1.9-0.3-2.6-1s-1-1.5-1-2.6c0-1,0.3-1.9,1-2.6s1.5-1,2.6-1c1,0,1.9,0.3,2.6,1
			c0.7,0.7,1,1.5,1,2.6c0,1-0.4,1.8-1.1,2.5C377.3,156.7,376.4,157.1,375.4,157.1z M372.1,186.3v-25.4h6.6v25.4H372.1z"/>
		<path class="st0" d="M393.1,160.2c2.4,0,4.2,0.9,5.5,2.7c1.3,1.8,2,4.4,2,7.8v15.6H394v-15.6c0-2.8-0.8-4.2-2.4-4.2
			c-1.8,0-2.7,1.2-2.7,3.7v16.1h-6.5v-25.4h4.3l0.5,2.6C388.4,161.3,390.4,160.2,393.1,160.2z"/>
		<path class="st0" d="M415.6,178.2h6.6c-0.3,2.8-1.2,4.9-2.9,6.4c-1.7,1.5-4,2.3-6.8,2.3c-2.8,0-5.1-0.9-6.7-2.7
			c-1.6-1.8-2.4-4.2-2.4-7.4V170c0-3.1,0.8-5.5,2.4-7.2c1.6-1.7,3.9-2.6,6.7-2.6c2.9,0,5.2,0.9,6.9,2.6c1.6,1.7,2.4,4.1,2.4,7.2v5.7
			H410v1.1c0,2.5,0.9,3.8,2.6,3.8c1,0,1.6-0.2,2-0.6C415,179.7,415.4,179.1,415.6,178.2z M412.6,166.3c-1.8,0-2.6,1.2-2.6,3.7v1.3
			h5.4V170C415.4,167.5,414.5,166.3,412.6,166.3z"/>
	</g>
	<g>
		<path class="st0" d="M211.1,134.8c-3.3,0-5.8-0.9-7.7-2.8c-1.8-1.9-2.7-4.6-2.7-8v-13.1c0-3.5,0.9-6.2,2.7-8.1
			c1.8-1.9,4.4-2.8,7.7-2.8c3.4,0,6,0.9,7.8,2.8s2.8,4.6,2.9,8.1H215c-0.1-1.5-0.4-2.6-1.1-3.3c-0.6-0.7-1.6-1-2.9-1
			c-2.2,0-3.3,1.4-3.3,4.3V124c0,2.8,1.1,4.2,3.3,4.2c1.3,0,2.3-0.3,2.9-1c0.6-0.7,1-1.7,1.1-3.2h6.8c-0.1,3.5-1,6.2-2.9,8.1
			C217.1,133.9,214.5,134.8,211.1,134.8z"/>
		<path class="st0" d="M235.7,126.2h6.6c-0.3,2.8-1.2,4.9-2.9,6.4c-1.7,1.5-4,2.3-6.8,2.3c-2.8,0-5.1-0.9-6.7-2.7
			c-1.6-1.8-2.4-4.2-2.4-7.4V118c0-3.1,0.8-5.5,2.4-7.2c1.6-1.7,3.9-2.6,6.7-2.6c2.9,0,5.2,0.9,6.9,2.6c1.6,1.7,2.4,4.1,2.4,7.2v5.7
			h-11.9v1.1c0,2.5,0.9,3.8,2.6,3.8c1,0,1.6-0.2,2-0.6C235.1,127.7,235.5,127.1,235.7,126.2z M232.7,114.3c-1.8,0-2.6,1.2-2.6,3.7
			v1.3h5.4V118C235.5,115.5,234.6,114.3,232.7,114.3z"/>
		<path class="st0" d="M255.6,108.2c2.4,0,4.2,0.9,5.5,2.7c1.3,1.8,2,4.4,2,7.8v15.6h-6.6v-15.6c0-2.8-0.8-4.2-2.4-4.2
			c-1.8,0-2.7,1.2-2.7,3.7v16.1h-6.5v-25.4h4.3l0.5,2.6C251,109.3,253,108.2,255.6,108.2z"/>
		<path class="st0" d="M277.1,128.5h1.6v6.1h-2.1c-2.7,0-4.9-0.8-6.5-2.5c-1.6-1.7-2.4-3.9-2.4-6.8v-10.7h-3.3v-5.9h3.3v-6.1h6.5
			v6.1h4.2v5.9h-4.2v10.8C274.2,127.5,275.2,128.5,277.1,128.5z"/>
		<path class="st0" d="M293,126.2h6.6c-0.3,2.8-1.2,4.9-2.9,6.4c-1.7,1.5-4,2.3-6.8,2.3c-2.8,0-5.1-0.9-6.7-2.7
			c-1.6-1.8-2.4-4.2-2.4-7.4V118c0-3.1,0.8-5.5,2.4-7.2c1.6-1.7,3.9-2.6,6.7-2.6c2.9,0,5.2,0.9,6.9,2.6c1.6,1.7,2.4,4.1,2.4,7.2v5.7
			h-11.9v1.1c0,2.5,0.9,3.8,2.6,3.8c1,0,1.6-0.2,2-0.6C292.4,127.7,292.8,127.1,293,126.2z M290,114.3c-1.8,0-2.6,1.2-2.6,3.7v1.3
			h5.4V118C292.8,115.5,291.9,114.3,290,114.3z"/>
		<path class="st0" d="M313.4,108.2c1.2,0,2.1,0.2,2.8,0.6v6.2c-1-0.4-2-0.7-3.1-0.7c-2.9,0-4.4,1.3-4.4,3.9v16h-6.5v-25.4h4.3
			l0.5,2.7C308.3,109.3,310.5,108.2,313.4,108.2z"/>
	</g>
	<g>
		<path class="st0" d="M208.5,77.8h11v6.5h-17.8V50.7H219v6.5h-10.5v7h9.6v6.2h-9.6V77.8z"/>
		<path class="st0" d="M241.2,84.3h-7.3l-3.5-7.4l-3.5,7.4h-7.3l6.7-12.8l-6-12.6h7.2l2.9,6.9l2.9-6.9h7.2l-5.9,12.6L241.2,84.3z"/>
		<path class="st0" d="M250.4,85c-3.1,0-5.5-0.9-7.2-2.6c-1.7-1.7-2.6-3.8-2.7-6.3h6.5c0.2,1.9,1.2,2.9,3.1,2.9c0.9,0,1.5-0.2,2-0.6
			c0.5-0.4,0.7-0.9,0.7-1.5c0-0.7-0.4-1.3-1.2-1.8c-0.8-0.5-1.8-1-3-1.4c-1.2-0.4-2.3-0.9-3.5-1.5c-1.2-0.6-2.2-1.4-3-2.5
			c-0.8-1.1-1.2-2.5-1.2-4.1c0-2.3,0.8-4.1,2.4-5.4c1.6-1.3,3.7-2,6.4-2c2.9,0,5,0.8,6.5,2.3c1.5,1.5,2.3,3.6,2.5,6.2h-6.3
			c-0.2-1.8-1.1-2.7-2.7-2.7c-0.7,0-1.3,0.2-1.7,0.5c-0.4,0.3-0.6,0.7-0.6,1.2c0,0.6,0.4,1.2,1.2,1.6c0.8,0.4,1.8,0.9,3,1.3
			c1.2,0.4,2.3,0.9,3.5,1.5c1.2,0.6,2.2,1.5,3,2.7c0.8,1.2,1.2,2.6,1.2,4.3c0,2.4-0.8,4.4-2.4,5.8C255.4,84.3,253.2,85,250.4,85z"/>
		<path class="st0" d="M271.8,58.3c2.5,0,4.5,0.9,6,2.8c1.5,1.8,2.3,4.3,2.3,7.3v6.6c0,3-0.8,5.4-2.3,7.2c-1.5,1.8-3.5,2.7-6,2.7
			c-1.4,0-2.7-0.5-3.8-1.4v9.4h-6.4V58.8h4.5l0.3,2.3C268,59.2,269.8,58.3,271.8,58.3z M273.4,74.9v-6.6c0-2.5-0.8-3.8-2.5-3.8
			c-1.9,0-2.9,1.3-2.9,3.8v6.6c0,2.5,1,3.7,2.9,3.7C272.6,78.7,273.4,77.4,273.4,74.9z"/>
		<path class="st0" d="M294.7,76.2h6.6c-0.3,2.8-1.2,4.9-2.9,6.4c-1.7,1.5-4,2.3-6.8,2.3c-2.8,0-5.1-0.9-6.7-2.7
			c-1.6-1.8-2.4-4.2-2.4-7.4V68c0-3.1,0.8-5.5,2.4-7.2c1.6-1.7,3.9-2.6,6.7-2.6c2.9,0,5.2,0.9,6.9,2.6c1.6,1.7,2.4,4.1,2.4,7.2v5.7
			h-11.9v1.1c0,2.5,0.9,3.8,2.6,3.8c1,0,1.6-0.2,2-0.6C294.2,77.7,294.5,77.1,294.7,76.2z M291.7,64.3c-1.8,0-2.6,1.2-2.6,3.7v1.3
			h5.4V68C294.5,65.5,293.6,64.3,291.7,64.3z"/>
		<path class="st0" d="M315.1,58.2c1.2,0,2.1,0.2,2.8,0.6V65c-1-0.4-2-0.7-3.1-0.7c-2.9,0-4.4,1.3-4.4,3.9v16h-6.5V58.8h4.3l0.5,2.7
			C310.1,59.3,312.2,58.2,315.1,58.2z"/>
		<path class="st0" d="M332,78.5h1.6v6.1h-2.1c-2.7,0-4.9-0.8-6.5-2.5c-1.6-1.7-2.4-3.9-2.4-6.8V64.7h-3.3v-5.9h3.3v-6.1h6.5v6.1
			h4.2v5.9h-4.2v10.8C329.2,77.5,330.1,78.5,332,78.5z"/>
	</g>
	<g>
		<path class="st0" d="M212,34.9c-3.2,0-5.8-0.9-7.6-2.7c-1.9-1.8-2.8-4.4-2.8-7.7h7c0,2.6,1.2,3.8,3.5,3.8c1.1,0,1.9-0.3,2.5-0.8
			c0.6-0.6,0.9-1.3,0.9-2.1c0-0.9-0.3-1.7-1-2.4c-0.7-0.8-1.5-1.4-2.4-2c-1-0.6-2-1.3-3.2-2c-1.2-0.8-2.2-1.6-3.2-2.4
			s-1.8-1.9-2.4-3.2c-0.7-1.3-1-2.8-1-4.4c0-2.6,0.9-4.8,2.6-6.4c1.7-1.6,4.1-2.5,7.2-2.5c3.1,0,5.5,0.9,7.3,2.6s2.6,4.2,2.6,7.3h-7
			c0-2.2-1-3.3-3-3.3c-0.9,0-1.6,0.2-2.1,0.7c-0.5,0.4-0.7,1.1-0.7,1.8c0,0.8,0.3,1.6,1,2.3c0.7,0.7,1.5,1.4,2.5,1.9
			c1,0.5,2.1,1.2,3.2,1.9c1.2,0.8,2.2,1.5,3.2,2.4c1,0.8,1.8,1.9,2.5,3.3c0.7,1.4,1,2.9,1,4.5c0,2.8-0.9,5.1-2.8,6.9
			C217.8,34.1,215.3,34.9,212,34.9z"/>
		<path class="st0" d="M235.5,28.5h1.6v6.1H235c-2.7,0-4.9-0.8-6.5-2.5c-1.6-1.7-2.4-3.9-2.4-6.8V14.7h-3.3V8.8h3.3V2.7h6.5v6.1h4.2
			v5.9h-4.2v10.8C232.6,27.5,233.5,28.5,235.5,28.5z"/>
		<path class="st0" d="M248.4,8.2c3,0,5.2,0.8,6.6,2.5c1.4,1.6,2.1,4.1,2.1,7.4v16.2h-5.2l-0.4-2.4c-1.1,2-2.9,3.1-5.5,3.1
			c-2.3,0-4.1-0.7-5.5-2.2c-1.4-1.5-2.1-3.4-2.1-5.7c0-2.7,0.9-4.7,2.7-6c1.8-1.4,4.1-2.1,7.1-2.1h2.4v-0.8c0-1.2-0.2-2.1-0.5-2.7
			c-0.3-0.6-0.9-0.9-1.8-0.9c-1.5,0-2.3,0.8-2.5,2.3h-6.6c0.1-2.7,1-4.8,2.6-6.3C243.4,9,245.6,8.2,248.4,8.2z M250.5,26.3v-1.9
			h-2.2c-2.1,0-3.2,0.9-3.2,2.6c0,0.7,0.2,1.3,0.6,1.7c0.4,0.4,1,0.7,1.9,0.7c0.9,0,1.6-0.3,2.1-0.8C250.3,28,250.5,27.2,250.5,26.3
			z"/>
		<path class="st0" d="M271.3,28.5h1.6v6.1h-2.1c-2.7,0-4.9-0.8-6.5-2.5c-1.6-1.7-2.4-3.9-2.4-6.8V14.7h-3.3V8.8h3.3V2.7h6.5v6.1
			h4.2v5.9h-4.2v10.8C268.4,27.5,269.4,28.5,271.3,28.5z"/>
		<path class="st0" d="M287.2,26.2h6.6c-0.3,2.8-1.2,4.9-2.9,6.4c-1.7,1.5-4,2.3-6.8,2.3c-2.8,0-5.1-0.9-6.7-2.7
			c-1.6-1.8-2.4-4.2-2.4-7.4V18c0-3.1,0.8-5.5,2.4-7.2c1.6-1.7,3.9-2.6,6.7-2.6c2.9,0,5.2,0.9,6.9,2.6c1.6,1.7,2.4,4.1,2.4,7.2v5.7
			h-11.9v1.1c0,2.5,0.9,3.8,2.6,3.8c1,0,1.6-0.2,2-0.6C286.7,27.7,287,27.1,287.2,26.2z M284.2,14.3c-1.8,0-2.6,1.2-2.6,3.7v1.3h5.4
			V18C287,15.5,286.1,14.3,284.2,14.3z"/>
	</g>
</g>
</svg>
