<?xml version="1.0" encoding="utf-8"?>
<!-- Generator: Adobe Illustrator 22.0.0, SVG Export Plug-In . SVG Version: 6.00 Build 0)  -->
<svg version="1.1" xmlns="http://www.w3.org/2000/svg" xmlns:xlink="http://www.w3.org/1999/xlink" x="0px" y="0px"
	 viewBox="0 0 412.3 196" style="enable-background:new 0 0 412.3 196;" xml:space="preserve">
<style type="text/css">
	.st0{fill:#289DA7;}
	.st1{fill:#3369B1;}
</style>
<g id="logo">
	<path class="st0" d="M92,93.5v47H45.5v-47H0V49.4h45.5V2.8L92,2.5v46.9h47.3L92,93.5z"/>
	<path class="st1" d="M186,140.5v47h-46.5v-47H94l45.5-45.1l46.5,1V140.5z"/>
	<circle class="st1" cx="163.7" cy="72.5" r="23.4"/>
</g>
<g id="text">
	<g>
		<path class="st1" d="M223.7,153.7h6.9v33.6h-6.7v-8.3c0.1-1.3,0.2-3.4,0.3-6.1s0.2-4.8,0.3-6.1l-0.2-0.1l-3,8.8l-1.7,4.6h-6.7
			l-1.7-4.6l-3-8.8l-0.2,0.1c0.1,1.3,0.2,3.4,0.3,6.1c0.1,2.7,0.2,4.8,0.2,6.1v8.3h-6.6v-33.6h6.9l5.3,12.7c1.2,2.9,1.9,4.9,2.2,5.9
			h0.2c0.3-1,1-2.9,2.2-5.9L223.7,153.7z"/>
		<path class="st1" d="M252.1,184.9c-1.9,2-4.6,3-8,3c-3.4,0-6.1-1-8-3c-1.9-2-2.9-4.8-2.9-8.4v-11.8c0-3.6,1-6.4,2.9-8.4
			c1.9-2,4.6-3,8-3c3.4,0,6.1,1,8,3s2.9,4.8,2.9,8.4v11.8C255,180,254.1,182.8,252.1,184.9z M244.1,181.3c2.6,0,3.8-1.6,3.8-4.8
			v-11.8c0-3.2-1.3-4.8-3.8-4.8c-2.6,0-3.8,1.6-3.8,4.8v11.8C240.3,179.7,241.6,181.3,244.1,181.3z"/>
		<path class="st1" d="M272.1,169.8c3.7,1.1,5.5,3.7,5.5,7.9c0,3.1-1.1,5.6-3.2,7.5c-2.1,1.9-4.8,2.8-8.1,2.8
			c-3.4,0-6.1-1.1-8.1-3.2c-2-2.1-3.1-4.7-3.2-7.7h6.9c0,1.1,0.4,2.1,1.2,3c0.7,0.9,1.8,1.3,3.3,1.3c1.2,0,2.2-0.4,3.1-1.1
			c0.8-0.8,1.2-1.8,1.2-3.1c0-2.8-1.6-4.2-4.7-4.2h-2.3v-5.9h1.8c1.5,0,2.6-0.3,3.2-1c0.6-0.7,1-1.7,1-3c0-1.1-0.3-2-0.8-2.6
			c-0.6-0.6-1.4-1-2.4-1c-2.6,0-3.9,1.5-4,4.5h-6.7c0.2-3.3,1.2-6,3-8c1.8-2,4.4-3,7.7-3c3.1,0,5.5,0.9,7.4,2.7
			c1.9,1.8,2.8,4.2,2.8,7.2c0,1.7-0.3,3.1-1,4.2C274.8,168.2,273.7,169.1,272.1,169.8z"/>
		<path class="st1" d="M298.6,153.7h7.2l-7.8,25.4c-1.1,3.6-2.4,6-4,7.1c-1.5,1.1-3.9,1.7-7.1,1.7h-1.2v-6h1.5
			c1.2,0,2.1-0.2,2.7-0.7c0.6-0.5,1.2-1.5,1.7-3l-8.3-24.4h7.2l4.2,13.7L298.6,153.7z"/>
		<path class="st1" d="M316.7,187.3l-5-9.6l-1.2,1.2v8.4h-6.5v-25.4h6.5v9.6c0.2-0.4,0.5-0.9,0.7-1.4c0.3-0.5,0.5-1,0.8-1.6
			c0.3-0.6,0.5-1,0.6-1.2l2.7-5.3h7.5l-6.9,10.7l8,14.8H316.7z"/>
		<path class="st1" d="M334,161.3c2.5,0,4.5,0.9,6,2.8c1.5,1.8,2.3,4.3,2.3,7.3v6.6c0,3-0.8,5.4-2.3,7.2c-1.5,1.8-3.5,2.7-6,2.7
			c-1.4,0-2.7-0.5-3.8-1.4v9.4h-6.4v-34.1h4.5l0.3,2.3C330.1,162.2,332,161.3,334,161.3z M335.6,178v-6.6c0-2.5-0.8-3.8-2.5-3.8
			c-1.9,0-2.9,1.3-2.9,3.8v6.6c0,2.5,1,3.7,2.9,3.7C334.7,181.7,335.6,180.5,335.6,178z"/>
		<path class="st1" d="M352.7,161.3c3,0,5.2,0.8,6.6,2.5c1.4,1.6,2.1,4.1,2.1,7.4v16.2h-5.2l-0.4-2.4c-1.1,2-2.9,3.1-5.5,3.1
			c-2.3,0-4.1-0.7-5.5-2.2c-1.4-1.5-2.1-3.4-2.1-5.7c0-2.7,0.9-4.7,2.7-6c1.8-1.4,4.1-2.1,7.1-2.1h2.4v-0.8c0-1.2-0.2-2.1-0.5-2.7
			c-0.3-0.6-0.9-0.9-1.8-0.9c-1.5,0-2.3,0.8-2.5,2.3h-6.6c0.1-2.7,1-4.8,2.6-6.3C347.7,162,349.9,161.3,352.7,161.3z M354.9,179.3
			v-1.9h-2.2c-2.1,0-3.2,0.9-3.2,2.6c0,0.7,0.2,1.3,0.6,1.7c0.4,0.4,1,0.7,1.9,0.7c0.9,0,1.6-0.3,2.1-0.8
			C354.6,181,354.9,180.3,354.9,179.3z"/>
		<path class="st1" d="M364.2,157.8c-0.8,0-1.5-0.3-2-0.8s-0.8-1.2-0.8-2.1c0-0.9,0.3-1.6,0.8-2.1c0.5-0.5,1.2-0.8,2-0.8
			c0.9,0,1.6,0.3,2.1,0.8c0.5,0.5,0.8,1.2,0.8,2.1c0,0.9-0.3,1.6-0.8,2.1S365.1,157.8,364.2,157.8z M364.5,187.3v-25.4h6.6v25.4
			H364.5z M371.4,157.8c-0.9,0-1.6-0.3-2.1-0.8s-0.8-1.2-0.8-2.1c0-0.9,0.3-1.6,0.8-2.1c0.5-0.5,1.2-0.8,2.1-0.8
			c0.8,0,1.5,0.3,2,0.8c0.5,0.5,0.8,1.2,0.8,2.1c0,0.9-0.3,1.6-0.8,2.1C372.9,157.5,372.2,157.8,371.4,157.8z"/>
		<path class="st1" d="M385.1,161.9h6.5v25.4h-6.5v-9.8h-4.4v9.8h-6.5v-25.4h6.5v9.6h4.4V161.9z"/>
		<path class="st1" d="M394.1,187.3v-25.4h6.2v6.7c0,0.6,0,1.8,0,3.7c0,1.9,0,3.5,0,4.8l0.1,0c0.3-1.2,1.5-4.8,3.6-10.8l1.6-4.5h6.6
			v25.4h-6.2v-5.6c0-3.9,0.1-7.1,0.2-9.6l-0.1,0c-0.1,0.6-0.6,2.4-1.5,5.2c-0.9,2.8-1.6,4.8-2.2,6l-1.8,4.2H394.1z"/>
	</g>
	<g>
		<path class="st1" d="M218.5,138v-5.7h-16.9V98.7h6.9v27.1h6.8V98.7h6.9v27.1h3.1V138H218.5z"/>
		<path class="st1" d="M237.9,124.2h6.6c-0.3,2.8-1.2,4.9-2.9,6.4c-1.7,1.5-4,2.3-6.8,2.3c-2.8,0-5.1-0.9-6.7-2.7
			c-1.6-1.8-2.4-4.2-2.4-7.4v-6.8c0-3.1,0.8-5.5,2.4-7.2c1.6-1.7,3.9-2.6,6.7-2.6c2.9,0,5.2,0.9,6.9,2.6c1.6,1.7,2.4,4.1,2.4,7.2
			v5.7h-11.9v1.1c0,2.5,0.9,3.8,2.6,3.8c1,0,1.6-0.2,2-0.6C237.4,125.7,237.7,125.1,237.9,124.2z M235,112.3c-1.8,0-2.6,1.2-2.6,3.7
			v1.3h5.4V116C237.7,113.5,236.8,112.3,235,112.3z"/>
		<path class="st1" d="M257.4,106.9h6.5v25.4h-6.5v-9.8H253v9.8h-6.5v-25.4h6.5v9.6h4.4V106.9z"/>
		<path class="st1" d="M281.9,106.9v6.2h-5.3v19.2h-6.5v-19.2h-5.3v-6.2H281.9z"/>
		<path class="st1" d="M293.1,106.3c2.5,0,4.5,0.9,6,2.8c1.5,1.8,2.3,4.3,2.3,7.3v6.6c0,3-0.8,5.4-2.3,7.2c-1.5,1.8-3.5,2.7-6,2.7
			c-1.4,0-2.7-0.5-3.8-1.4v9.4h-6.4v-34.1h4.5l0.3,2.3C289.3,107.2,291.1,106.3,293.1,106.3z M294.7,123v-6.6c0-2.5-0.8-3.8-2.5-3.8
			c-1.9,0-2.9,1.3-2.9,3.8v6.6c0,2.5,1,3.7,2.9,3.7C293.9,126.7,294.7,125.5,294.7,123z"/>
	</g>
	<g>
		<path class="st1" d="M208.5,78.8h11v6.5h-17.8V51.7H219v6.5h-10.5v7h9.6v6.2h-9.6V78.8z"/>
		<path class="st1" d="M233.9,85.3l-5-9.6l-1.2,1.2v8.4h-6.5V59.9h6.5v9.6c0.2-0.4,0.5-0.9,0.7-1.4c0.3-0.5,0.5-1,0.8-1.6
			c0.3-0.6,0.5-1,0.6-1.2l2.7-5.3h7.5l-6.9,10.7l8,14.8H233.9z"/>
		<path class="st1" d="M248.1,85.9c-2.8,0-5.1-0.8-6.7-2.5c-1.6-1.7-2.4-4-2.4-7v-7.6c0-3,0.8-5.3,2.4-7s3.8-2.5,6.7-2.5
			c2.9,0,5.2,0.8,6.8,2.5c1.6,1.6,2.4,4,2.5,7h-6.6c-0.1-2.2-0.9-3.3-2.5-3.3c-1.7,0-2.6,1.1-2.6,3.3v7.6c0,2.2,0.9,3.3,2.6,3.3
			c1.7,0,2.6-1.1,2.7-3.3h6.6c-0.1,3-0.9,5.4-2.6,7C253.3,85.1,251,85.9,248.1,85.9z"/>
		<path class="st1" d="M276,59.9v25.4h-6.5V65.9H265v19.4h-6.5V59.9H276z"/>
		<path class="st1" d="M290.1,77.2h6.6c-0.3,2.8-1.2,4.9-2.9,6.4c-1.7,1.5-4,2.3-6.8,2.3c-2.8,0-5.1-0.9-6.7-2.7
			c-1.6-1.8-2.4-4.2-2.4-7.4v-6.8c0-3.1,0.8-5.5,2.4-7.2c1.6-1.7,3.9-2.6,6.7-2.6c2.9,0,5.2,0.9,6.9,2.6c1.6,1.7,2.4,4.1,2.4,7.2
			v5.7h-11.9v1.1c0,2.5,0.9,3.8,2.6,3.8c1,0,1.6-0.2,2-0.6C289.6,78.7,289.9,78.1,290.1,77.2z M287.1,65.3c-1.8,0-2.6,1.2-2.6,3.7
			v1.3h5.4V69C289.9,66.5,289,65.3,287.1,65.3z"/>
		<path class="st1" d="M308.4,59.3c2.5,0,4.5,0.9,6,2.8c1.5,1.8,2.3,4.3,2.3,7.3V76c0,3-0.8,5.4-2.3,7.2c-1.5,1.8-3.5,2.7-6,2.7
			c-1.4,0-2.7-0.5-3.8-1.4V94h-6.4V59.8h4.5l0.3,2.3C304.6,60.2,306.4,59.3,308.4,59.3z M310,76v-6.6c0-2.5-0.8-3.8-2.5-3.8
			c-1.9,0-2.9,1.3-2.9,3.8V76c0,2.5,1,3.7,2.9,3.7C309.1,79.7,310,78.5,310,76z"/>
		<path class="st1" d="M332,59.9v6.2h-5.3v19.2h-6.5V66.1h-5.3v-6.2H332z"/>
		<path class="st1" d="M343.4,59.9h6.5v25.4h-6.5v-9.8H339v9.8h-6.5V59.9h6.5v9.6h4.4V59.9z"/>
		<path class="st1" d="M352.4,85.3V59.9h6.2v6.7c0,0.6,0,1.8,0,3.7c0,1.9,0,3.5,0,4.8l0.1,0c0.3-1.2,1.5-4.8,3.6-10.8l1.6-4.5h6.6
			v25.4h-6.2v-5.6c0-3.9,0.1-7.1,0.2-9.6l-0.1,0c-0.1,0.6-0.6,2.4-1.5,5.2c-0.9,2.8-1.6,4.8-2.2,6l-1.8,4.2H352.4z"/>
		<path class="st1" d="M373.1,85.3V59.9h6.2v6.7c0,0.6,0,1.8,0,3.7c0,1.9,0,3.5,0,4.8l0.1,0c0.3-1.2,1.5-4.8,3.6-10.8l1.6-4.5h6.6
			v25.4h-6.2v-5.6c0-3.9,0.1-7.1,0.2-9.6l-0.1,0c-0.1,0.6-0.6,2.4-1.5,5.2c-0.9,2.8-1.6,4.8-2.2,6l-1.8,4.2H373.1z M382.4,56
			c-1.8,0-3.2-0.5-4.4-1.6c-1.2-1.1-1.8-2.5-1.8-4.3h4.2c0,0.6,0.2,1.1,0.6,1.4c0.4,0.4,0.8,0.5,1.4,0.5c0.5,0,1-0.2,1.4-0.5
			c0.4-0.4,0.6-0.8,0.6-1.4h4.2c-0.1,1.9-0.7,3.4-1.8,4.4C385.5,55.4,384.1,56,382.4,56z"/>
	</g>
	<g>
		<path class="st1" d="M221.8,28.9h3.1V41h-6.8v-5.7h-14.5V41h-6.7V28.9h2.2c2.4-2.6,3.7-7,4-13.2l0.5-14h18.2V28.9z M215.1,28.9
			V8.2h-5.1l-0.4,9.6c-0.2,4.6-1,8.3-2.6,11.2H215.1z"/>
		<path class="st1" d="M237.1,27.2h6.6c-0.3,2.8-1.2,4.9-2.9,6.4c-1.7,1.5-4,2.3-6.8,2.3c-2.8,0-5.1-0.9-6.7-2.7
			c-1.6-1.8-2.4-4.2-2.4-7.4v-6.8c0-3.1,0.8-5.5,2.4-7.2c1.6-1.7,3.9-2.6,6.7-2.6c2.9,0,5.2,0.9,6.9,2.6c1.6,1.7,2.4,4.1,2.4,7.2
			v5.7h-11.9v1.1c0,2.5,0.9,3.8,2.6,3.8c1,0,1.6-0.2,2-0.6C236.5,28.7,236.9,28.1,237.1,27.2z M234.1,15.3c-1.8,0-2.6,1.2-2.6,3.7
			v1.3h5.4V19C236.9,16.5,236,15.3,234.1,15.3z"/>
		<path class="st1" d="M255.4,9.3c2.5,0,4.5,0.9,6,2.8c1.5,1.8,2.3,4.3,2.3,7.3V26c0,3-0.8,5.4-2.3,7.2c-1.5,1.8-3.5,2.7-6,2.7
			c-1.4,0-2.7-0.5-3.8-1.4V44h-6.4V9.8h4.5l0.3,2.3C251.5,10.2,253.4,9.3,255.4,9.3z M257,26v-6.6c0-2.5-0.8-3.8-2.5-3.8
			c-1.9,0-2.9,1.3-2.9,3.8V26c0,2.5,1,3.7,2.9,3.7C256.1,29.7,257,28.5,257,26z"/>
		<path class="st1" d="M287.6,35.3l-5-9.7l-1.2,1.2v8.4h-6.2v-8.4l-1.2-1.2l-5,9.7h-7.2l8-14.8l-6.9-10.7h7.4l2.7,5.3
			c0.6,1.1,1.3,2.5,2.1,4.2V9.9h6.2v9.5c0.8-1.7,1.5-3.1,2.1-4.2l2.7-5.3h7.4l-6.9,10.7l8,14.8H287.6z"/>
		<path class="st1" d="M302.2,9.3c3,0,5.2,0.8,6.6,2.5c1.4,1.6,2.1,4.1,2.1,7.4v16.2h-5.2l-0.4-2.4c-1.1,2-2.9,3.1-5.5,3.1
			c-2.3,0-4.1-0.7-5.5-2.2c-1.4-1.5-2.1-3.4-2.1-5.7c0-2.7,0.9-4.7,2.7-6c1.8-1.4,4.1-2.1,7.1-2.1h2.4v-0.8c0-1.2-0.2-2.1-0.5-2.7
			c-0.3-0.6-0.9-0.9-1.8-0.9c-1.5,0-2.3,0.8-2.5,2.3H293c0.1-2.7,1-4.8,2.6-6.3C297.2,10,299.4,9.3,302.2,9.3z M304.3,27.3v-1.9
			h-2.2c-2.1,0-3.2,0.9-3.2,2.6c0,0.7,0.2,1.3,0.6,1.7c0.4,0.4,1,0.7,1.9,0.7c0.9,0,1.6-0.3,2.1-0.8C304.1,29,304.3,28.3,304.3,27.3
			z"/>
		<path class="st1" d="M327.6,21.8c2.6,1,3.8,3,3.8,6c0,2.3-0.8,4.2-2.4,5.5c-1.6,1.3-3.9,2-7.1,2h-8.6V9.8h8.6c2.7,0,4.7,0.6,6,1.9
			c1.4,1.3,2.1,3.1,2.1,5.4C330.1,19.2,329.3,20.7,327.6,21.8z M319.7,15v4.8h1.8c1.5,0,2.2-0.8,2.2-2.4c0-0.7-0.2-1.3-0.6-1.8
			c-0.4-0.4-1-0.6-1.7-0.6H319.7z M322.4,30c1.7,0,2.5-0.8,2.5-2.5c0-1.7-0.8-2.5-2.5-2.5h-2.7v5H322.4z"/>
		<path class="st1" d="M343,9.9h6.5v25.4H343v-9.8h-4.4v9.8h-6.5V9.9h6.5v9.6h4.4V9.9z"/>
		<path class="st1" d="M352,35.3V9.9h6.2v6.7c0,0.6,0,1.8,0,3.7c0,1.9,0,3.5,0,4.8l0.1,0c0.3-1.2,1.5-4.8,3.6-10.8l1.6-4.5h6.6v25.4
			H364v-5.6c0-3.9,0.1-7.1,0.2-9.6l-0.1,0c-0.1,0.6-0.6,2.4-1.5,5.2c-0.9,2.8-1.6,4.8-2.2,6l-1.8,4.2H352z"/>
		<path class="st1" d="M372.8,35.3V9.9h6.2v6.7c0,0.6,0,1.8,0,3.7c0,1.9,0,3.5,0,4.8l0.1,0c0.3-1.2,1.5-4.8,3.6-10.8l1.6-4.5h6.6
			v25.4h-6.2v-5.6c0-3.9,0.1-7.1,0.2-9.6l-0.1,0c-0.1,0.6-0.6,2.4-1.5,5.2c-0.9,2.8-1.6,4.8-2.2,6l-1.8,4.2H372.8z M382,6
			c-1.8,0-3.2-0.5-4.4-1.6c-1.2-1.1-1.8-2.5-1.8-4.3h4.2c0,0.6,0.2,1.1,0.6,1.4c0.4,0.4,0.8,0.5,1.4,0.5c0.5,0,1-0.2,1.4-0.5
			c0.4-0.4,0.6-0.8,0.6-1.4h4.2c-0.1,1.9-0.7,3.4-1.8,4.4C385.2,5.4,383.7,6,382,6z"/>
	</g>
</g>
</svg>
